<?xml version="1.0" standalone="no"?><!-- Generator: Gravit.io --><svg xmlns="http://www.w3.org/2000/svg" xmlns:xlink="http://www.w3.org/1999/xlink" style="isolation:isolate" viewBox="0 0 500 500" width="500" height="500"><defs><clipPath id="_clipPath_Yu6k4ov5ayAoRyzdEwWXtL9cKFYjLHCa"><rect width="500" height="500"/></clipPath></defs><g clip-path="url(#_clipPath_Yu6k4ov5ayAoRyzdEwWXtL9cKFYjLHCa)"><g><defs><filter id="YYgQFwwtJgmpjrcECsfsBMQWoDCzfkVm" x="-200%" y="-200%" width="400%" height="400%" filterUnits="objectBoundingBox" color-interpolation-filters="sRGB"><feGaussianBlur xmlns="http://www.w3.org/2000/svg" in="SourceGraphic" stdDeviation="1.2880827188517086"/><feOffset xmlns="http://www.w3.org/2000/svg" dx="5" dy="2" result="pf_100_offsetBlur"/><feFlood xmlns="http://www.w3.org/2000/svg" flood-color="#000000" flood-opacity="0.65"/><feComposite xmlns="http://www.w3.org/2000/svg" in2="pf_100_offsetBlur" operator="in" result="pf_100_dropShadow"/><feBlend xmlns="http://www.w3.org/2000/svg" in="SourceGraphic" in2="pf_100_dropShadow" mode="normal"/></filter></defs><g filter="url(#YYgQFwwtJgmpjrcECsfsBMQWoDCzfkVm)"><path d=" M 60 189.049 C 60 87.505 142.188 5.317 243.433 5.317 C 344.828 5.317 427.016 87.505 427.016 189.049 C 427.016 243.543 403.193 292.677 365.375 326.326 C 363.29 328.113 291.227 395.262 242.987 498.146 C 224.822 425.338 154.397 355.36 122.087 326.773 C 83.971 292.974 60 243.84 60 189.049 Z  M 129.979 189.049 C 129.979 251.732 180.899 302.503 243.433 302.503 C 306.116 302.503 356.888 251.732 356.888 189.049 C 356.888 126.217 306.116 75.445 243.433 75.445 C 180.899 75.445 129.979 126.217 129.979 189.049 Z " fill="rgb(0,150,136)" vector-effect="non-scaling-stroke" stroke-width="0.021" stroke="rgb(0,153,0)" stroke-linejoin="miter" stroke-linecap="butt" stroke-miterlimit="4"/></g><circle vector-effect="non-scaling-stroke" cx="243.50784745220102" cy="188.2460762738995" r="148.24607627389952" fill="rgb(139,139,139)" stroke-width="4" stroke="rgb(255,255,255)" stroke-linejoin="miter" stroke-linecap="butt" stroke-miterlimit="4"/></g><defs><filter id="dxX7zuT9iZcFgKAcs8NXJHXvrzz7JQeP" x="-200%" y="-200%" width="400%" height="400%" filterUnits="objectBoundingBox" color-interpolation-filters="sRGB"><feGaussianBlur xmlns="http://www.w3.org/2000/svg" in="SourceGraphic" stdDeviation="2.146804531419514"/><feOffset xmlns="http://www.w3.org/2000/svg" dx="2" dy="2" result="pf_100_offsetBlur"/><feFlood xmlns="http://www.w3.org/2000/svg" flood-color="#000000" flood-opacity="0.65"/><feComposite xmlns="http://www.w3.org/2000/svg" in2="pf_100_offsetBlur" operator="in" result="pf_100_dropShadow"/><feBlend xmlns="http://www.w3.org/2000/svg" in="SourceGraphic" in2="pf_100_dropShadow" mode="normal"/></filter></defs><g filter="url(#dxX7zuT9iZcFgKAcs8NXJHXvrzz7JQeP)"><mask id="_mask_dRyHgU4JFTHBrOcoFtS545aTdUf8MSRt" x="-200%" y="-200%" width="400%" height="400%"><rect x="-200%" y="-200%" width="400%" height="400%" style="fill:white;"/><path style="fill:white;" d=" M 336.308 221.389 L 336.308 201.853 L 258.16 153.011 L 258.16 99.284 C 258.16 91.176 251.616 84.632 243.508 84.632 C 235.4 84.632 228.855 91.176 228.855 99.284 L 228.855 153.011 L 150.708 201.853 L 150.708 221.389 L 228.855 196.968 L 228.855 250.695 L 209.318 265.347 L 209.318 280 L 243.508 270.232 L 277.697 280 L 277.697 265.347 L 258.16 250.695 L 258.16 196.968 L 336.308 221.389 Z " fill="black" stroke="none"/></mask><linearGradient id="_lgradient_2" x1="0" y1="0.5" x2="1" y2="0.5"><stop offset="0%" stop-opacity="1" style="stop-color:rgb(255,255,255)"/><stop offset="100%" stop-opacity="1" style="stop-color:rgb(0,0,0)"/></linearGradient><path d=" M 336.308 221.389 L 336.308 201.853 L 258.16 153.011 L 258.16 99.284 C 258.16 91.176 251.616 84.632 243.508 84.632 C 235.4 84.632 228.855 91.176 228.855 99.284 L 228.855 153.011 L 150.708 201.853 L 150.708 221.389 L 228.855 196.968 L 228.855 250.695 L 209.318 265.347 L 209.318 280 L 243.508 270.232 L 277.697 280 L 277.697 265.347 L 258.16 250.695 L 258.16 196.968 L 336.308 221.389 Z " fill="rgb(242,242,209)" mask="url(#_mask_dRyHgU4JFTHBrOcoFtS545aTdUf8MSRt)" vector-effect="non-scaling-stroke" stroke-width="4" stroke="url(#_lgradient_2)" stroke-linejoin="miter" stroke-linecap="butt" stroke-miterlimit="4"/></g></g></svg>
